<?xml version="1.0" encoding="utf-8"?>
<!-- Generator: Adobe Illustrator 16.0.0, SVG Export Plug-In . SVG Version: 6.00 Build 0)  -->
<!DOCTYPE svg PUBLIC "-//W3C//DTD SVG 1.1 Tiny//EN" "http://www.w3.org/Graphics/SVG/1.1/DTD/svg11-tiny.dtd">
<svg version="1.1" baseProfile="tiny" id="Layer_1" xmlns="http://www.w3.org/2000/svg" xmlns:xlink="http://www.w3.org/1999/xlink"
	 x="0px" y="0px" width="195.145px" height="188.994px" viewBox="0 0 195.145 188.994" xml:space="preserve" shape-rendering="geometricPrecision">
<g>
	<polygon fill="none" points="100.067,188.865 100.067,188.868 100.067,188.865 	"/>
	<path fill="none" d="M33.409,30.894c-0.87-0.942-1.956-1.481-3.229-1.6c-0.16-0.015-0.318-0.023-0.472-0.023
		c-1.067,0-2.01,0.37-2.803,1.099c-0.904,0.835-1.36,1.902-1.356,3.171c0.003,1.274,0.454,2.407,1.342,3.369
		c0.889,0.962,1.984,1.501,3.256,1.603c1.274,0.099,2.368-0.267,3.263-1.092c0.894-0.825,1.341-1.892,1.329-3.171
		C34.726,32.966,34.278,31.837,33.409,30.894z"/>
	<path fill="none" d="M46.847,16.815c-0.512-0.128-1.004-0.054-1.465,0.224l-2.002,1.203l1.995,3.316l2-1.2
		c0.467-0.282,0.757-0.671,0.886-1.19c0.13-0.521,0.065-1-0.198-1.462C47.767,17.238,47.369,16.945,46.847,16.815z"/>
	<path fill="none" d="M62.052,124.748c-14.044-20.416-11.763-49.79-8.438-67.872C47.7,65.41,42.577,78.105,40.045,94.149
		c-4.758,30.15,1.432,56.267,13.799,58.219c0.493,0.078,0.998,0.117,1.501,0.117c7.045,0,13.802-6.804,19.262-16.705
		C70.241,134.065,65.811,130.212,62.052,124.748z"/>
	<path fill="none" d="M81.665,7.215c0.304-0.443,0.403-0.915,0.303-1.442c-0.097-0.521-0.368-0.94-0.806-1.246
		c-0.438-0.305-0.927-0.41-1.454-0.31l-2.295,0.429l0.712,3.805l2.295-0.43C80.947,7.922,81.366,7.651,81.665,7.215z"/>
	<path fill="none" d="M131.59,46.015c-0.046-3.025-0.635-6.813-3.186-7.68c-0.335-0.114-0.733-0.211-1.197-0.211
		c-0.944,0-2.158,0.406-3.647,1.912c-6.338,6.41-12.274,27.026-16.287,56.563c-0.475,3.498-0.896,6.914-1.266,10.213
		c3.021-4.056,5.962-8.493,8.771-13.261C124.999,76.2,131.756,57.096,131.59,46.015z"/>
	<path fill="none" d="M66.171,121.914c3.768,5.477,7.738,8.324,10.725,9.374c4.203-8.902,7.413-19.567,9.043-29.896
		c2.412-15.282,2.212-29.508-0.563-40.059c-2.584-9.826-7.182-15.739-12.944-16.648c-0.533-0.084-1.079-0.126-1.624-0.126
		c-3.311,0-6.906,1.611-10.459,4.656C56.736,64.134,50.628,99.319,66.171,121.914z"/>
	<path fill="none" d="M144.473,17.506c-0.639,1.144-0.812,2.352-0.513,3.592c0.297,1.238,0.986,2.167,2.05,2.762
		s2.212,0.689,3.427,0.279c1.216-0.408,2.149-1.183,2.775-2.302c0.627-1.119,0.803-2.318,0.521-3.566
		c-0.28-1.242-0.966-2.177-2.04-2.779c-0.646-0.362-1.326-0.545-2.019-0.545c-0.459,0-0.936,0.081-1.417,0.239
		C146.049,15.583,145.112,16.364,144.473,17.506z"/>
	<polygon fill="none" points="98.049,8.471 100.928,8.491 99.516,4.661 	"/>
	<polygon fill="none" points="103.834,14.136 103.834,14.138 103.834,14.136 	"/>
	<path fill="#212121" d="M36.485,36.922c0.352-0.83,0.524-1.694,0.513-2.569c0.031-1.913-0.608-3.591-1.899-4.992
		c-1.292-1.399-2.914-2.185-4.819-2.336c-0.202-0.016-0.404-0.024-0.6-0.024c-1.65,0-3.106,0.572-4.327,1.7
		c-1.369,1.263-2.071,2.863-2.087,4.757c-0.017,1.896,0.639,3.578,1.949,4.997c1.311,1.419,2.935,2.208,4.825,2.344
		c1.895,0.133,3.55-0.445,4.937-1.726C35.626,38.476,36.134,37.752,36.485,36.922z M30.557,38.778c-0.141,0-0.285-0.006-0.43-0.018
		c-1.336-0.106-2.487-0.672-3.42-1.682c-0.932-1.009-1.405-2.199-1.408-3.538c-0.004-1.342,0.479-2.471,1.437-3.355
		c0.959-0.884,2.126-1.266,3.468-1.142c1.336,0.125,2.477,0.69,3.39,1.68c0.913,0.99,1.382,2.175,1.396,3.521
		c0.013,1.353-0.461,2.482-1.409,3.357C32.734,38.383,31.717,38.778,30.557,38.778z"/>
	<path d="M36.715,37.02c0.365-0.862,0.544-1.76,0.533-2.666c0.032-1.976-0.63-3.712-1.966-5.162
		c-1.336-1.447-3.013-2.259-4.983-2.416c-1.974-0.157-3.698,0.431-5.117,1.742c-1.421,1.311-2.151,2.973-2.167,4.939
		c-0.017,1.961,0.661,3.701,2.015,5.169c1.356,1.467,3.035,2.282,4.991,2.423c0.188,0.014,0.373,0.021,0.555,0.021
		c1.73,0,3.267-0.61,4.569-1.812C35.822,38.636,36.35,37.883,36.715,37.02z M30.039,40.8c-1.891-0.137-3.514-0.925-4.825-2.344
		c-1.31-1.419-1.965-3.101-1.949-4.997c0.016-1.894,0.718-3.495,2.087-4.757c1.221-1.128,2.677-1.7,4.327-1.7
		c0.196,0,0.398,0.008,0.6,0.024c1.906,0.151,3.527,0.937,4.819,2.336c1.291,1.401,1.93,3.08,1.899,4.992
		c0.011,0.875-0.162,1.739-0.513,2.569c-0.351,0.83-0.859,1.554-1.509,2.152C33.589,40.355,31.934,40.933,30.039,40.8z"/>
	<path d="M33.593,30.724c-0.913-0.989-2.053-1.554-3.39-1.68c-1.341-0.125-2.508,0.258-3.468,1.142
		c-0.958,0.884-1.441,2.013-1.437,3.355c0.003,1.338,0.477,2.528,1.408,3.538c0.933,1.01,2.083,1.576,3.42,1.682
		c0.146,0.012,0.289,0.018,0.43,0.018c1.16,0,2.177-0.396,3.022-1.175c0.948-0.875,1.422-2.004,1.409-3.357
		C34.975,32.899,34.505,31.714,33.593,30.724z M30.146,38.512c-1.271-0.101-2.367-0.64-3.256-1.603
		c-0.888-0.961-1.339-2.095-1.342-3.369c-0.004-1.269,0.453-2.336,1.356-3.171c0.792-0.729,1.735-1.099,2.803-1.099
		c0.154,0,0.312,0.008,0.472,0.023c1.273,0.119,2.36,0.658,3.229,1.6c0.869,0.943,1.316,2.072,1.329,3.354
		c0.012,1.279-0.435,2.346-1.329,3.171C32.514,38.245,31.42,38.611,30.146,38.512z"/>
	<path fill="#212121" d="M50.423,19.699c0.281-1.11,0.125-2.167-0.461-3.143c-0.586-0.977-1.449-1.613-2.564-1.892
		c-0.356-0.088-0.711-0.133-1.054-0.133c-0.729,0-1.437,0.203-2.106,0.605l-3.069,1.844c-0.231,0.139-0.381,0.34-0.446,0.599
		c-0.065,0.263-0.028,0.504,0.114,0.739l6.077,10.114c0.14,0.236,0.335,0.382,0.598,0.447c0.258,0.064,0.504,0.026,0.739-0.114
		c0.236-0.141,0.385-0.339,0.456-0.607c0.071-0.265,0.036-0.507-0.105-0.742l-2.299-3.826l2.216-1.332
		C49.501,21.669,50.142,20.808,50.423,19.699z M48.502,19.229c-0.144,0.579-0.48,1.031-1,1.344l-2.214,1.329l-2.251-3.745
		l2.216-1.331c0.519-0.312,1.076-0.397,1.655-0.252c0.579,0.144,1.04,0.482,1.369,1.004C48.572,18.096,48.647,18.65,48.502,19.229z"
		/>
	<path d="M50.666,19.761c0.298-1.177,0.133-2.298-0.489-3.333c-0.622-1.035-1.536-1.71-2.718-2.005
		c-1.18-0.294-2.309-0.125-3.35,0.5l-3.069,1.844c-0.29,0.174-0.479,0.427-0.56,0.752c-0.082,0.326-0.034,0.639,0.142,0.929
		l6.077,10.113c0.173,0.291,0.426,0.48,0.752,0.561c0.102,0.026,0.204,0.039,0.303,0.039c0.216,0,0.426-0.061,0.625-0.18
		c0.291-0.173,0.482-0.428,0.569-0.757c0.088-0.329,0.043-0.643-0.133-0.935l-2.17-3.611l2.002-1.204
		C49.688,21.848,50.367,20.936,50.666,19.761z M46.302,23.591l2.299,3.826c0.141,0.234,0.176,0.477,0.105,0.742
		c-0.07,0.268-0.219,0.466-0.456,0.607c-0.235,0.14-0.481,0.178-0.739,0.114c-0.263-0.065-0.458-0.211-0.598-0.447l-6.077-10.114
		c-0.142-0.235-0.179-0.477-0.114-0.739c0.065-0.258,0.215-0.459,0.446-0.599l3.069-1.844c0.669-0.402,1.378-0.605,2.106-0.605
		c0.343,0,0.697,0.045,1.054,0.133c1.115,0.279,1.978,0.915,2.564,1.892c0.586,0.975,0.742,2.033,0.461,3.143
		c-0.282,1.108-0.922,1.97-1.905,2.56L46.302,23.591z"/>
	<path d="M46.908,16.573c-0.579-0.146-1.136-0.06-1.655,0.252l-2.216,1.331l2.251,3.745l2.214-1.329
		c0.519-0.313,0.855-0.765,1-1.344c0.145-0.579,0.069-1.132-0.226-1.651C47.947,17.055,47.486,16.717,46.908,16.573z M48.26,19.168
		c-0.129,0.52-0.419,0.909-0.886,1.19l-2,1.2l-1.995-3.316l2.002-1.203c0.461-0.277,0.953-0.352,1.465-0.224
		c0.521,0.13,0.92,0.423,1.215,0.89C48.326,18.168,48.39,18.646,48.26,19.168z"/>
	<path fill="#212121" d="M65.207,7.308c0.114-0.256,0.122-0.505,0.023-0.76c-0.098-0.257-0.268-0.434-0.519-0.541
		c-0.135-0.058-0.269-0.087-0.4-0.087c-0.113,0-0.228,0.022-0.339,0.065l-6.108,2.338c-0.256,0.097-0.434,0.264-0.544,0.512
		c-0.11,0.246-0.116,0.49-0.019,0.747l4.217,11.021c0.098,0.255,0.265,0.433,0.512,0.543c0.229,0.103,0.46,0.115,0.701,0.035
		l0.014-0.03l0.096-0.019l0.019,0.001l6.026-2.305c0.24-0.09,0.418-0.265,0.531-0.518c0.114-0.254,0.123-0.5,0.027-0.751
		c-0.097-0.25-0.267-0.427-0.521-0.54c-0.254-0.113-0.5-0.124-0.742-0.031l-5.179,1.981l-1.404-3.67l4.47-1.709
		c0.256-0.1,0.433-0.27,0.539-0.52c0.108-0.253,0.114-0.498,0.019-0.749c-0.095-0.249-0.266-0.426-0.521-0.542
		c-0.251-0.112-0.497-0.122-0.74-0.03l-4.47,1.71l-1.397-3.652l0.117-0.044l5.062-1.937C64.919,7.732,65.093,7.563,65.207,7.308z"/>
	<path d="M65.435,7.409c0.14-0.315,0.15-0.635,0.028-0.951c-0.121-0.319-0.341-0.548-0.654-0.682
		c-0.31-0.132-0.625-0.142-0.927-0.026l-6.107,2.338c-0.317,0.119-0.547,0.336-0.685,0.644c-0.136,0.305-0.145,0.621-0.023,0.938
		l4.217,11.021c0.121,0.316,0.337,0.546,0.643,0.682c0.16,0.072,0.326,0.109,0.492,0.109c0.146,0,0.296-0.028,0.446-0.084
		l0.019-0.014l0.014,0.001l6.077-2.324c0.304-0.115,0.53-0.333,0.671-0.649c0.14-0.313,0.151-0.63,0.032-0.943
		c-0.12-0.311-0.339-0.539-0.653-0.679c-0.314-0.139-0.63-0.151-0.933-0.036l-4.945,1.891l-1.226-3.202l4.237-1.621
		c0.318-0.124,0.547-0.344,0.679-0.655c0.133-0.311,0.141-0.626,0.022-0.936c-0.118-0.31-0.337-0.539-0.653-0.681
		c-0.312-0.139-0.629-0.151-0.931-0.035l-4.236,1.62l-1.219-3.184l4.945-1.893C65.069,7.942,65.295,7.724,65.435,7.409z
		 M59.613,9.762l-0.117,0.044l1.397,3.652l4.47-1.71c0.243-0.092,0.489-0.082,0.74,0.03c0.256,0.116,0.426,0.293,0.521,0.542
		c0.096,0.251,0.09,0.496-0.019,0.749c-0.106,0.25-0.283,0.42-0.539,0.52l-4.47,1.709l1.404,3.67l5.179-1.981
		c0.242-0.093,0.488-0.082,0.742,0.031c0.254,0.113,0.424,0.291,0.521,0.54c0.096,0.251,0.087,0.498-0.027,0.751
		c-0.113,0.253-0.292,0.427-0.531,0.518l-6.026,2.305l-0.019-0.001l-0.096,0.019l-0.014,0.03c-0.241,0.08-0.472,0.068-0.701-0.035
		c-0.247-0.11-0.414-0.288-0.512-0.543L57.3,9.581c-0.098-0.256-0.092-0.5,0.019-0.747c0.11-0.248,0.289-0.416,0.544-0.512
		l6.108-2.338c0.112-0.043,0.226-0.065,0.339-0.065c0.131,0,0.265,0.029,0.4,0.087c0.251,0.107,0.421,0.284,0.519,0.541
		c0.098,0.255,0.091,0.504-0.023,0.76c-0.113,0.255-0.287,0.424-0.531,0.517L59.613,9.762z"/>
	<path fill="#212121" d="M83.289,8.974l-0.14-0.071l0.1-0.121c0.834-1.008,1.145-2.122,0.922-3.31
		c-0.224-1.194-0.814-2.128-1.754-2.777c-0.709-0.491-1.482-0.739-2.296-0.739c-0.266,0-0.542,0.027-0.821,0.079l-3.518,0.658
		c-0.271,0.05-0.476,0.183-0.628,0.405c-0.153,0.223-0.203,0.461-0.151,0.731l2.17,11.6c0.051,0.271,0.184,0.477,0.405,0.628
		c0.222,0.153,0.463,0.202,0.732,0.151c0.271-0.05,0.479-0.184,0.638-0.408c0.159-0.223,0.211-0.463,0.16-0.734l-0.821-4.388
		l2.443-0.457c0.449,0.016,0.864,0.109,1.26,0.273c0.624,0.257,1.015,0.71,1.164,1.348c0.184,0.977,0.464,1.727,0.833,2.235
		c0.421,0.5,0.891,0.698,1.441,0.594c0.401-0.075,0.66-0.259,0.81-0.567c0.149-0.307,0.142-0.596-0.021-0.885
		c-0.163-0.292-0.398-0.451-0.721-0.489l-0.074-0.008l-0.027-0.07c-0.132-0.333-0.234-0.727-0.303-1.172
		C84.873,10.312,84.266,9.467,83.289,8.974z M81.871,7.356c-0.337,0.493-0.81,0.799-1.404,0.91l-2.541,0.476l-0.804-4.297
		l2.541-0.475c0.596-0.111,1.149,0.008,1.643,0.351c0.493,0.345,0.799,0.817,0.909,1.405C82.324,6.314,82.209,6.863,81.871,7.356z"
		/>
	<path d="M84.417,5.427c-0.237-1.261-0.862-2.249-1.858-2.937c-0.996-0.688-2.109-0.923-3.305-0.7l-3.518,0.658
		c-0.334,0.062-0.6,0.234-0.788,0.51c-0.19,0.276-0.254,0.585-0.191,0.919l2.17,11.6c0.063,0.335,0.235,0.6,0.51,0.788
		c0.206,0.142,0.433,0.214,0.676,0.214c0.079,0,0.161-0.008,0.244-0.023c0.333-0.062,0.601-0.234,0.796-0.51
		c0.197-0.277,0.265-0.588,0.202-0.924l-0.775-4.143l2.169-0.408c0.392,0.017,0.777,0.103,1.146,0.256
		c0.553,0.228,0.885,0.611,1.015,1.168c0.189,1.008,0.484,1.792,0.881,2.338c0.399,0.475,0.858,0.716,1.364,0.716
		c0.104,0,0.211-0.01,0.339-0.033c0.458-0.087,0.784-0.322,0.968-0.701c0.185-0.381,0.175-0.757-0.028-1.117
		c-0.189-0.338-0.469-0.541-0.833-0.604c-0.113-0.302-0.201-0.655-0.263-1.055c-0.225-1.199-0.83-2.078-1.801-2.617
		C84.348,7.786,84.644,6.645,84.417,5.427z M85.422,12.723l0.074,0.008c0.322,0.038,0.558,0.197,0.721,0.489
		c0.163,0.289,0.17,0.578,0.021,0.885c-0.15,0.308-0.408,0.493-0.81,0.567c-0.55,0.104-1.02-0.094-1.441-0.594
		c-0.37-0.508-0.65-1.259-0.833-2.235c-0.148-0.638-0.54-1.091-1.164-1.348c-0.396-0.165-0.811-0.257-1.26-0.273l-2.443,0.457
		l0.821,4.388c0.051,0.271-0.001,0.511-0.16,0.734c-0.159,0.224-0.368,0.358-0.638,0.408c-0.27,0.051-0.51,0.002-0.732-0.151
		c-0.221-0.151-0.354-0.357-0.405-0.628l-2.17-11.6c-0.051-0.27-0.001-0.509,0.151-0.731c0.152-0.223,0.357-0.355,0.628-0.405
		L79.3,2.036c0.278-0.052,0.555-0.079,0.821-0.079c0.814,0,1.587,0.249,2.296,0.739c0.939,0.648,1.53,1.583,1.754,2.777
		c0.222,1.188-0.088,2.302-0.922,3.31l-0.1,0.121l0.14,0.071c0.977,0.493,1.584,1.338,1.803,2.507
		c0.069,0.445,0.171,0.839,0.303,1.172L85.422,12.723z"/>
	<path d="M81.305,4.322c-0.494-0.343-1.047-0.462-1.643-0.351l-2.541,0.475l0.804,4.297l2.541-0.476
		c0.594-0.111,1.066-0.417,1.404-0.91c0.338-0.494,0.454-1.042,0.343-1.63C82.104,5.139,81.798,4.667,81.305,4.322z M78.126,8.451
		l-0.712-3.805l2.295-0.429c0.526-0.1,1.016,0.005,1.454,0.31c0.438,0.306,0.708,0.725,0.806,1.246c0.1,0.528,0,1-0.303,1.442
		c-0.299,0.437-0.717,0.708-1.244,0.806L78.126,8.451z"/>
	<path fill="#212121" d="M103.834,14.013c0.409,0,0.694-0.138,0.871-0.423c0.184-0.296,0.221-0.591,0.115-0.903l-4.334-11.811
		c-0.167-0.42-0.453-0.626-0.871-0.626l-0.061,0.001c-0.032-0.001-0.052-0.002-0.07-0.002c-0.178,0-0.344,0.052-0.496,0.156
		c-0.175,0.118-0.306,0.274-0.391,0.464l-4.501,11.743c-0.11,0.308-0.077,0.604,0.103,0.9c0.175,0.291,0.463,0.434,0.881,0.437
		c0.411,0,0.689-0.201,0.858-0.615l1.029-2.671l5.031,0.036l0.992,2.689c0.151,0.418,0.422,0.622,0.828,0.625l0.016,0.124l0,0
		V14.013z M97.686,8.718l1.836-4.766l1.766,4.792L97.686,8.718z"/>
	<path d="M98.848,0.198c-0.213,0.144-0.374,0.335-0.481,0.576l-4.504,11.752c-0.136,0.381-0.095,0.756,0.123,1.116
		c0.22,0.367,0.588,0.554,1.105,0.558c0.507,0,0.87-0.259,1.081-0.773l0.968-2.513l4.686,0.034l0.932,2.526
		c0.188,0.52,0.545,0.785,1.061,0.789h0.018c0.495,0,0.86-0.182,1.084-0.541c0.222-0.358,0.269-0.734,0.138-1.118L100.72,0.787
		C100.512,0.265,100.141,0,99.615,0c-0.023,0-0.048,0-0.059,0.001C99.292-0.015,99.062,0.053,98.848,0.198z M103.834,14.136
		l-0.016-0.124c-0.406-0.002-0.677-0.207-0.828-0.625l-0.992-2.689l-5.031-0.036l-1.029,2.671c-0.169,0.414-0.447,0.615-0.858,0.615
		c-0.418-0.002-0.706-0.146-0.881-0.437c-0.179-0.297-0.212-0.592-0.103-0.9L98.598,0.87c0.085-0.19,0.216-0.347,0.391-0.464
		c0.152-0.104,0.318-0.156,0.496-0.156c0.019,0,0.038,0,0.07,0.002l0.061-0.001c0.418,0,0.704,0.206,0.871,0.626l4.334,11.811
		c0.105,0.312,0.068,0.607-0.115,0.903c-0.177,0.285-0.462,0.423-0.871,0.423V14.136v0.001V14.136z"/>
	<path d="M97.686,8.718l3.602,0.026l-1.766-4.792L97.686,8.718z M98.049,8.471l1.467-3.81l1.412,3.83L98.049,8.471z"/>
	<path fill="#212121" d="M116.595,15.609c0.269,0.051,0.509,0.003,0.733-0.15c0.222-0.151,0.354-0.355,0.406-0.626l2.013-10.616
		l3.247,0.615c0.257,0.049,0.493-0.004,0.726-0.161c0.23-0.158,0.368-0.366,0.418-0.634c0.051-0.27,0.002-0.509-0.149-0.732
		s-0.356-0.356-0.627-0.409l-8.39-1.591c-0.066-0.013-0.133-0.019-0.197-0.019c-0.193,0-0.368,0.056-0.535,0.169
		c-0.224,0.151-0.356,0.356-0.407,0.625c-0.052,0.271-0.003,0.514,0.149,0.745c0.149,0.228,0.354,0.364,0.623,0.416l3.228,0.612
		l-2.014,10.616c-0.051,0.27-0.002,0.51,0.149,0.732C116.12,15.423,116.325,15.557,116.595,15.609z"/>
	<path d="M115.761,15.342c0.189,0.275,0.454,0.448,0.787,0.512c0.084,0.016,0.167,0.023,0.247,0.023c0.24,0,0.467-0.072,0.674-0.213
		c0.275-0.187,0.447-0.452,0.512-0.786l1.966-10.371l3.001,0.569c0.321,0.059,0.627-0.007,0.913-0.201
		c0.285-0.195,0.461-0.463,0.523-0.795c0.062-0.333-0.001-0.642-0.188-0.918c-0.188-0.276-0.452-0.449-0.787-0.514l-8.391-1.591
		c-0.332-0.061-0.646,0.003-0.919,0.19c-0.277,0.188-0.449,0.452-0.513,0.786c-0.063,0.333,0,0.645,0.187,0.928
		c0.186,0.284,0.45,0.46,0.785,0.524l2.981,0.565l-1.967,10.371C115.51,14.756,115.573,15.065,115.761,15.342z M115.818,14.469
		l2.014-10.616l-3.228-0.612c-0.27-0.052-0.474-0.188-0.623-0.416c-0.152-0.231-0.201-0.474-0.149-0.745
		c0.051-0.27,0.184-0.474,0.407-0.625c0.167-0.114,0.342-0.169,0.535-0.169c0.064,0,0.131,0.006,0.197,0.019l8.39,1.591
		c0.271,0.053,0.476,0.186,0.627,0.409s0.2,0.462,0.149,0.732c-0.05,0.269-0.188,0.476-0.418,0.634
		c-0.232,0.157-0.469,0.21-0.726,0.161l-3.247-0.615l-2.013,10.616c-0.052,0.271-0.185,0.476-0.406,0.626
		c-0.225,0.154-0.465,0.201-0.733,0.15c-0.27-0.052-0.475-0.186-0.627-0.408C115.816,14.979,115.768,14.739,115.818,14.469z"/>
	<path fill="#212121" d="M130.535,19.364c0.258,0.092,0.512,0.079,0.757-0.035c0.25-0.115,0.414-0.296,0.504-0.555l3.906-11.137
		c0.091-0.259,0.075-0.504-0.047-0.747c-0.123-0.246-0.31-0.41-0.569-0.501c-0.114-0.04-0.227-0.06-0.335-0.06
		c-0.14,0-0.277,0.033-0.411,0.098c-0.243,0.116-0.405,0.299-0.497,0.559l-3.905,11.135c-0.091,0.259-0.078,0.504,0.038,0.748
		C130.093,19.112,130.276,19.274,130.535,19.364z"/>
	<path d="M130.452,19.6c0.141,0.05,0.283,0.075,0.423,0.075c0.176,0,0.352-0.041,0.521-0.119c0.311-0.143,0.524-0.378,0.636-0.699
		l3.906-11.137c0.112-0.322,0.092-0.639-0.061-0.941c-0.151-0.303-0.39-0.513-0.71-0.625c-0.32-0.112-0.641-0.094-0.937,0.049
		c-0.301,0.144-0.511,0.38-0.625,0.701l-3.905,11.135c-0.112,0.321-0.096,0.637,0.05,0.939
		C129.896,19.279,130.133,19.489,130.452,19.6z M129.938,18.122l3.905-11.135c0.092-0.26,0.254-0.443,0.497-0.559
		c0.134-0.065,0.271-0.098,0.411-0.098c0.108,0,0.221,0.02,0.335,0.06c0.26,0.091,0.446,0.255,0.569,0.501
		c0.122,0.243,0.138,0.488,0.047,0.747l-3.906,11.137c-0.09,0.259-0.254,0.44-0.504,0.555c-0.245,0.114-0.499,0.127-0.757,0.035
		c-0.259-0.09-0.442-0.252-0.56-0.495C129.859,18.625,129.847,18.381,129.938,18.122z"/>
	<path fill="#212121" d="M141.752,21.706c0.455,1.837,1.521,3.236,3.17,4.158c0.77,0.432,1.616,0.69,2.516,0.769
		c0.9,0.078,1.772-0.028,2.6-0.31c1.829-0.565,3.226-1.693,4.156-3.355c0.931-1.663,1.175-3.448,0.728-5.306
		c-0.448-1.855-1.498-3.256-3.122-4.165c-0.999-0.559-2.045-0.841-3.109-0.841c-0.669,0-1.362,0.112-2.06,0.333
		c-1.808,0.573-3.202,1.718-4.146,3.404C141.539,18.079,141.293,19.867,141.752,21.706z M144.254,17.384
		c0.672-1.199,1.656-2.018,2.926-2.436c1.275-0.42,2.499-0.311,3.636,0.326c1.139,0.638,1.865,1.628,2.162,2.942
		c0.295,1.309,0.11,2.568-0.547,3.743c-0.657,1.175-1.638,1.989-2.914,2.417c-0.521,0.176-1.036,0.265-1.532,0.265
		c-0.724,0-1.43-0.189-2.098-0.563c-1.126-0.63-1.855-1.613-2.169-2.921C143.403,19.854,143.584,18.584,144.254,17.384z"/>
	<path d="M144.8,26.082c0.801,0.449,1.681,0.718,2.616,0.8c0.198,0.017,0.398,0.025,0.593,0.025c0.723,0,1.432-0.117,2.105-0.346
		c1.889-0.583,3.335-1.751,4.298-3.471c0.962-1.72,1.215-3.566,0.751-5.486c-0.464-1.925-1.556-3.38-3.242-4.324
		c-1.686-0.944-3.492-1.123-5.367-0.529c-1.869,0.592-3.312,1.777-4.288,3.52c-0.978,1.744-1.231,3.593-0.756,5.496
		C141.981,23.673,143.089,25.125,144.8,26.082z M146.63,12.989c0.697-0.221,1.391-0.333,2.06-0.333c1.064,0,2.11,0.283,3.109,0.841
		c1.624,0.909,2.674,2.31,3.122,4.165c0.447,1.857,0.203,3.643-0.728,5.306c-0.931,1.662-2.327,2.79-4.156,3.355
		c-0.827,0.281-1.699,0.387-2.6,0.31c-0.899-0.079-1.746-0.337-2.516-0.769c-1.648-0.922-2.715-2.321-3.17-4.158
		c-0.459-1.839-0.213-3.627,0.732-5.313C143.428,14.707,144.822,13.562,146.63,12.989z"/>
	<path d="M145.887,24.078c0.668,0.374,1.374,0.563,2.098,0.563c0.496,0,1.012-0.089,1.532-0.265
		c1.276-0.429,2.257-1.242,2.914-2.417c0.657-1.174,0.842-2.434,0.547-3.743c-0.297-1.314-1.023-2.304-2.162-2.942
		c-1.137-0.637-2.36-0.746-3.636-0.326c-1.27,0.417-2.254,1.237-2.926,2.436c-0.67,1.2-0.851,2.47-0.536,3.772
		C144.031,22.465,144.761,23.448,145.887,24.078z M148.675,14.947c0.692,0,1.372,0.184,2.019,0.545
		c1.074,0.603,1.76,1.538,2.04,2.779c0.281,1.248,0.105,2.447-0.521,3.566c-0.626,1.119-1.56,1.894-2.775,2.302
		c-1.215,0.41-2.363,0.315-3.427-0.279s-1.753-1.524-2.05-2.762c-0.299-1.24-0.126-2.448,0.513-3.592
		c0.64-1.142,1.576-1.923,2.785-2.32C147.739,15.027,148.216,14.947,148.675,14.947z"/>
	<path fill="#212121" d="M167.22,37.423l1.258-11.347c0.028-0.263-0.038-0.491-0.203-0.697c-0.166-0.206-0.401-0.326-0.717-0.367
		c-0.306-0.036-0.554,0.074-0.767,0.344l-7.82,8.632c-0.185,0.203-0.269,0.433-0.256,0.703c0.013,0.269,0.116,0.487,0.314,0.667
		c0.198,0.181,0.425,0.257,0.701,0.241c0.275-0.018,0.495-0.122,0.67-0.315l5.832-6.438l-1.263,11.263
		c-0.004,0.02-0.01,0.045-0.005,0.136c-0.011,0.324,0.082,0.565,0.283,0.748c0.193,0.176,0.413,0.262,0.671,0.262l0.041-0.001
		c0.271-0.009,0.494-0.112,0.681-0.314l7.802-8.613c0.174-0.192,0.25-0.418,0.232-0.692c-0.017-0.274-0.12-0.493-0.315-0.67
		c-0.194-0.176-0.428-0.263-0.686-0.24c-0.27,0.013-0.485,0.113-0.661,0.306L167.22,37.423z"/>
	<path d="M168.47,25.222c-0.207-0.255-0.503-0.41-0.881-0.458c-0.394-0.054-0.729,0.1-0.989,0.431l-7.814,8.625
		c-0.228,0.251-0.335,0.548-0.32,0.883c0.017,0.334,0.149,0.617,0.396,0.841c0.25,0.225,0.555,0.332,0.885,0.305
		c0.34-0.022,0.622-0.156,0.84-0.396l5.312-5.864l-1.174,10.474c-0.012,0.043-0.015,0.104-0.01,0.185
		c-0.013,0.387,0.11,0.7,0.365,0.931c0.238,0.216,0.521,0.326,0.839,0.326l0.049-0.001c0.338-0.011,0.626-0.145,0.857-0.396
		l7.803-8.613c0.219-0.242,0.318-0.536,0.297-0.875c-0.021-0.337-0.154-0.62-0.397-0.84c-0.242-0.22-0.548-0.317-0.866-0.304
		c-0.334,0.016-0.614,0.146-0.834,0.388l-5.273,5.821l1.172-10.579C168.762,25.776,168.676,25.48,168.47,25.222z M174.359,30.963
		c0.195,0.177,0.299,0.396,0.315,0.67c0.018,0.273-0.059,0.5-0.232,0.692l-7.802,8.613c-0.187,0.203-0.409,0.306-0.681,0.314
		l-0.041,0.001c-0.258,0-0.478-0.085-0.671-0.262c-0.201-0.182-0.294-0.423-0.283-0.748c-0.005-0.091,0.001-0.116,0.005-0.136
		l1.263-11.263l-5.832,6.438c-0.175,0.194-0.395,0.297-0.67,0.315c-0.276,0.016-0.503-0.061-0.701-0.241
		c-0.198-0.18-0.302-0.398-0.314-0.667c-0.013-0.27,0.071-0.5,0.256-0.703l7.82-8.632c0.213-0.271,0.461-0.38,0.767-0.344
		c0.315,0.041,0.551,0.161,0.717,0.367c0.165,0.207,0.231,0.435,0.203,0.697l-1.258,11.347l5.793-6.393
		c0.176-0.193,0.392-0.293,0.661-0.306C173.932,30.701,174.165,30.788,174.359,30.963z"/>
	<path fill="#212121" d="M63.489,181.866l1.479-4.696l0.119,0.038l5.061,1.594l-1.481,4.697c-0.083,0.264-0.062,0.507,0.063,0.744
		c0.124,0.239,0.311,0.396,0.575,0.479c0.261,0.082,0.513,0.062,0.756-0.06c0.245-0.123,0.403-0.311,0.485-0.571l3.546-11.254
		c0.083-0.261,0.06-0.505-0.071-0.749c-0.131-0.241-0.323-0.399-0.585-0.482c-0.259-0.081-0.509-0.061-0.745,0.064
		c-0.235,0.121-0.396,0.313-0.478,0.573l-1.48,4.698l-0.119-0.038l-5.06-1.593l1.48-4.699c0.082-0.26,0.059-0.504-0.071-0.747
		c-0.131-0.24-0.323-0.397-0.585-0.48c-0.264-0.083-0.506-0.062-0.744,0.062c-0.24,0.124-0.396,0.312-0.479,0.573l-3.546,11.254
		c-0.082,0.26-0.061,0.511,0.062,0.747c0.125,0.239,0.313,0.396,0.575,0.479c0.258,0.08,0.512,0.061,0.755-0.062
		C63.247,182.316,63.406,182.129,63.489,181.866z"/>
	<path d="M68.508,184.359c0.153,0.296,0.396,0.498,0.721,0.602c0.129,0.041,0.26,0.062,0.387,0.062c0.189,0,0.377-0.046,0.557-0.137
		c0.304-0.152,0.51-0.395,0.611-0.72l3.546-11.253c0.103-0.323,0.073-0.64-0.089-0.942c-0.162-0.298-0.407-0.5-0.73-0.603
		c-0.323-0.102-0.64-0.072-0.935,0.08c-0.296,0.153-0.498,0.396-0.601,0.721l-1.405,4.459l-4.703-1.48l1.405-4.46
		c0.102-0.322,0.072-0.639-0.089-0.94c-0.162-0.297-0.408-0.499-0.73-0.601c-0.324-0.103-0.642-0.074-0.935,0.079
		c-0.297,0.153-0.499,0.396-0.601,0.721l-3.546,11.253c-0.103,0.326-0.076,0.642,0.079,0.938c0.155,0.297,0.397,0.499,0.722,0.602
		c0.322,0.1,0.643,0.075,0.942-0.076c0.304-0.152,0.51-0.395,0.613-0.721l1.404-4.457l4.703,1.481l-1.406,4.459
		C68.326,183.75,68.353,184.064,68.508,184.359z M62.247,182.5c-0.262-0.083-0.45-0.239-0.575-0.479
		c-0.124-0.236-0.145-0.487-0.062-0.747l3.546-11.254c0.083-0.262,0.239-0.449,0.479-0.573c0.238-0.125,0.48-0.146,0.744-0.062
		c0.263,0.083,0.454,0.24,0.585,0.48c0.13,0.243,0.153,0.487,0.071,0.747l-1.48,4.699l5.06,1.593l0.119,0.038l1.48-4.698
		c0.082-0.26,0.243-0.452,0.478-0.573c0.236-0.125,0.486-0.146,0.745-0.064c0.262,0.083,0.454,0.241,0.585,0.482
		c0.131,0.244,0.154,0.488,0.071,0.749l-3.546,11.254c-0.082,0.261-0.24,0.448-0.485,0.571c-0.243,0.122-0.496,0.142-0.756,0.06
		c-0.264-0.084-0.451-0.24-0.575-0.479c-0.125-0.237-0.146-0.48-0.063-0.744l1.481-4.697l-5.061-1.594l-0.119-0.038l-1.479,4.696
		c-0.083,0.263-0.242,0.45-0.487,0.572C62.759,182.561,62.504,182.58,62.247,182.5z"/>
	<path fill="#212121" d="M86.373,175.158c0.038-0.271-0.024-0.508-0.191-0.724c-0.168-0.219-0.382-0.344-0.655-0.382
		c-0.055-0.009-0.107-0.013-0.159-0.013c-0.208,0-0.394,0.063-0.567,0.193c-0.215,0.162-0.339,0.373-0.379,0.645l-1.683,11.679
		c-0.039,0.273,0.021,0.511,0.183,0.726c0.161,0.216,0.372,0.34,0.645,0.379c0.264,0.038,0.514-0.021,0.735-0.182
		c0.221-0.16,0.348-0.37,0.388-0.641L86.373,175.158z"/>
	<path d="M84.651,174.033c-0.268,0.201-0.428,0.474-0.476,0.81l-1.683,11.679c-0.048,0.338,0.029,0.645,0.229,0.911
		c0.2,0.268,0.473,0.428,0.809,0.477c0.065,0.009,0.129,0.014,0.192,0.014c0.261,0,0.505-0.081,0.726-0.24
		c0.275-0.199,0.439-0.472,0.488-0.809l1.683-11.681c0.048-0.337-0.033-0.644-0.24-0.911c-0.207-0.27-0.482-0.43-0.817-0.478
		C85.226,173.755,84.92,173.832,84.651,174.033z M83.567,187.661c-0.273-0.039-0.484-0.163-0.645-0.379
		c-0.162-0.215-0.221-0.452-0.183-0.726l1.683-11.679c0.04-0.271,0.164-0.482,0.379-0.645c0.174-0.13,0.359-0.193,0.567-0.193
		c0.051,0,0.104,0.004,0.159,0.013c0.272,0.038,0.486,0.163,0.655,0.382c0.167,0.216,0.229,0.452,0.191,0.724l-1.683,11.681
		c-0.04,0.271-0.167,0.48-0.388,0.641C84.081,187.64,83.831,187.699,83.567,187.661z"/>
	<path fill="#212121" d="M100.082,188.743c0.276-0.003,0.501-0.098,0.688-0.289c0.19-0.195,0.28-0.422,0.276-0.694l-0.111-10.806
		l3.305-0.034c0.262-0.003,0.483-0.101,0.677-0.3c0.197-0.2,0.291-0.431,0.287-0.705c-0.003-0.273-0.098-0.499-0.291-0.688
		c-0.19-0.186-0.413-0.276-0.682-0.276l-8.552,0.089c-0.276,0.004-0.501,0.099-0.689,0.29c-0.189,0.193-0.279,0.421-0.275,0.694
		c0.002,0.276,0.098,0.505,0.292,0.7c0.189,0.192,0.413,0.285,0.683,0.285l3.295-0.033l0.001,0.125l0.111,10.68
		c0.003,0.274,0.098,0.499,0.29,0.687c0.189,0.187,0.412,0.276,0.68,0.276v0.122l0,0L100.082,188.743z"/>
	<path d="M105.096,176.795c0.242-0.246,0.362-0.544,0.358-0.883c-0.003-0.338-0.126-0.629-0.366-0.864
		c-0.236-0.23-0.524-0.348-0.87-0.348l-8.541,0.089c-0.34,0.004-0.631,0.127-0.865,0.365c-0.234,0.24-0.351,0.534-0.347,0.872
		c0.003,0.339,0.126,0.633,0.364,0.873c0.235,0.238,0.525,0.359,0.874,0.359l3.034-0.031l0.11,10.555
		c0.003,0.34,0.126,0.631,0.365,0.863c0.235,0.23,0.522,0.348,0.854,0.348h0.018c0.341-0.003,0.632-0.126,0.865-0.365
		c0.235-0.24,0.352-0.534,0.347-0.871l-0.109-10.555l3.055-0.032C104.569,177.167,104.856,177.04,105.096,176.795z M100.067,188.865
		v-0.122c-0.268,0-0.49-0.09-0.68-0.276c-0.192-0.188-0.287-0.412-0.29-0.687l-0.111-10.68l-0.001-0.125l-3.295,0.033
		c-0.27,0-0.493-0.093-0.683-0.285c-0.194-0.195-0.29-0.424-0.292-0.7c-0.003-0.273,0.086-0.501,0.275-0.694
		c0.188-0.191,0.413-0.286,0.689-0.29l8.552-0.089c0.269,0,0.491,0.091,0.682,0.276c0.193,0.189,0.288,0.415,0.291,0.688
		c0.004,0.274-0.09,0.505-0.287,0.705c-0.193,0.199-0.415,0.297-0.677,0.3l-3.305,0.034l0.111,10.806
		c0.004,0.272-0.086,0.499-0.276,0.694c-0.188,0.191-0.412,0.286-0.688,0.289L100.067,188.865v0.003V188.865z"/>
	<path fill="#212121" d="M121.5,174.066c1.303-0.289,2.499-0.165,3.554,0.368c0.23,0.119,0.479,0.127,0.749,0.03
		c0.273-0.098,0.465-0.271,0.586-0.531c0.12-0.261,0.133-0.515,0.038-0.774c-0.095-0.262-0.263-0.452-0.515-0.582
		c-0.979-0.467-2.015-0.703-3.073-0.703c-0.551,0-1.119,0.063-1.69,0.19c-1.906,0.437-3.42,1.494-4.499,3.143
		c-1.078,1.65-1.419,3.442-1.014,5.328c0.434,1.892,1.501,3.379,3.175,4.417c1.672,1.04,3.489,1.353,5.401,0.926
		c1.668-0.367,3.048-1.202,4.104-2.479c0.173-0.208,0.245-0.448,0.22-0.732c-0.027-0.283-0.144-0.513-0.357-0.699
		c-0.217-0.166-0.466-0.233-0.758-0.211c-0.291,0.027-0.511,0.136-0.674,0.33c-0.754,0.933-1.794,1.551-3.091,1.838
		c-0.369,0.081-0.739,0.122-1.1,0.122c-0.914,0-1.812-0.265-2.671-0.787c-1.2-0.729-1.96-1.78-2.259-3.125
		c-0.297-1.343-0.068-2.637,0.68-3.846C119.117,175.103,120.191,174.356,121.5,174.066z"/>
	<path d="M121.555,174.311c1.245-0.275,2.386-0.158,3.386,0.347c0.289,0.147,0.612,0.163,0.946,0.043
		c0.335-0.119,0.58-0.341,0.729-0.661c0.147-0.32,0.163-0.645,0.046-0.965c-0.114-0.319-0.328-0.561-0.638-0.722
		c-1.546-0.734-3.201-0.917-4.931-0.532c-1.972,0.452-3.537,1.545-4.652,3.25c-1.116,1.708-1.47,3.564-1.049,5.52
		c0.449,1.961,1.555,3.5,3.286,4.575c1.229,0.763,2.537,1.149,3.891,1.149c0.554,0,1.125-0.064,1.698-0.192
		c1.723-0.38,3.15-1.242,4.242-2.563c0.214-0.259,0.307-0.566,0.274-0.915c-0.032-0.346-0.181-0.637-0.447-0.869
		c-0.271-0.21-0.581-0.302-0.939-0.267c-0.354,0.033-0.638,0.174-0.844,0.42c-0.718,0.888-1.712,1.478-2.952,1.752
		c-0.351,0.077-0.702,0.116-1.045,0.116c-0.867,0-1.723-0.252-2.541-0.75c-1.14-0.692-1.861-1.69-2.145-2.967
		c-0.282-1.276-0.064-2.508,0.646-3.655C119.287,175.298,120.31,174.587,121.555,174.311z M117.626,180.134
		c0.299,1.345,1.059,2.396,2.259,3.125c0.858,0.522,1.757,0.787,2.671,0.787c0.36,0,0.73-0.041,1.1-0.122
		c1.297-0.287,2.337-0.905,3.091-1.838c0.163-0.194,0.383-0.303,0.674-0.33c0.292-0.022,0.541,0.045,0.758,0.211
		c0.214,0.187,0.33,0.416,0.357,0.699c0.025,0.284-0.047,0.524-0.22,0.732c-1.056,1.277-2.436,2.112-4.104,2.479
		c-1.912,0.427-3.729,0.114-5.401-0.926c-1.674-1.038-2.741-2.525-3.175-4.417c-0.405-1.886-0.064-3.678,1.014-5.328
		c1.079-1.648,2.593-2.706,4.499-3.143c0.571-0.127,1.14-0.19,1.69-0.19c1.059,0,2.094,0.236,3.073,0.703
		c0.252,0.13,0.42,0.32,0.515,0.582c0.095,0.26,0.082,0.514-0.038,0.774c-0.121,0.261-0.312,0.434-0.586,0.531
		c-0.27,0.097-0.519,0.089-0.749-0.03c-1.055-0.533-2.251-0.657-3.554-0.368c-1.309,0.29-2.383,1.036-3.194,2.222
		C117.558,177.497,117.329,178.791,117.626,180.134z"/>
	<path fill="#212121" d="M140.69,174.299l4.921-2.297l2.083,4.463c0.115,0.249,0.295,0.415,0.549,0.507
		c0.25,0.092,0.499,0.078,0.747-0.037c0.25-0.114,0.418-0.296,0.516-0.554c0.099-0.257,0.09-0.501-0.026-0.749l-4.991-10.692
		c-0.115-0.247-0.298-0.412-0.557-0.503c-0.255-0.087-0.51-0.074-0.758,0.04c-0.248,0.115-0.414,0.295-0.508,0.55
		c-0.09,0.249-0.078,0.5,0.035,0.746l2.085,4.463l-4.921,2.297l-2.083-4.463c-0.115-0.248-0.297-0.412-0.557-0.502
		c-0.112-0.039-0.225-0.059-0.335-0.059c-0.142,0-0.284,0.033-0.424,0.097c-0.248,0.118-0.414,0.298-0.505,0.55
		c-0.093,0.254-0.082,0.498,0.034,0.747l4.992,10.692c0.116,0.249,0.296,0.415,0.55,0.508c0.247,0.09,0.498,0.078,0.747-0.036
		c0.248-0.116,0.417-0.298,0.516-0.556c0.098-0.255,0.089-0.5-0.026-0.749L140.69,174.299z"/>
	<path d="M147.468,176.57c0.143,0.308,0.375,0.521,0.69,0.636c0.312,0.116,0.633,0.099,0.937-0.045
		c0.308-0.141,0.524-0.374,0.646-0.691c0.121-0.318,0.109-0.636-0.034-0.943l-4.991-10.692c-0.144-0.308-0.379-0.521-0.702-0.634
		c-0.32-0.107-0.64-0.092-0.944,0.05c-0.307,0.143-0.521,0.375-0.637,0.69c-0.114,0.313-0.1,0.629,0.043,0.938l1.979,4.236
		l-4.468,2.086l-1.978-4.236c-0.144-0.309-0.379-0.521-0.701-0.633c-0.317-0.109-0.638-0.095-0.946,0.048
		c-0.309,0.146-0.521,0.379-0.634,0.691c-0.115,0.313-0.102,0.629,0.042,0.938l4.992,10.692c0.144,0.308,0.376,0.521,0.69,0.637
		c0.139,0.051,0.279,0.076,0.418,0.076c0.175,0,0.35-0.041,0.521-0.12c0.307-0.144,0.522-0.376,0.645-0.692
		c0.12-0.317,0.109-0.635-0.034-0.944l-1.979-4.236l4.468-2.086L147.468,176.57z M142.801,179.511
		c-0.099,0.258-0.268,0.439-0.516,0.556c-0.249,0.114-0.5,0.126-0.747,0.036c-0.254-0.093-0.434-0.259-0.55-0.508l-4.992-10.692
		c-0.116-0.249-0.127-0.493-0.034-0.747c0.091-0.252,0.257-0.432,0.505-0.55c0.14-0.063,0.282-0.097,0.424-0.097
		c0.11,0,0.223,0.02,0.335,0.059c0.26,0.09,0.441,0.254,0.557,0.502l2.083,4.463l4.921-2.297l-2.085-4.463
		c-0.113-0.246-0.125-0.497-0.035-0.746c0.094-0.255,0.26-0.435,0.508-0.55c0.248-0.114,0.503-0.127,0.758-0.04
		c0.259,0.091,0.441,0.256,0.557,0.503l4.991,10.692c0.116,0.248,0.125,0.492,0.026,0.749c-0.098,0.258-0.266,0.439-0.516,0.554
		c-0.248,0.115-0.497,0.129-0.747,0.037c-0.254-0.092-0.434-0.258-0.549-0.507l-2.083-4.463l-4.921,2.297l2.084,4.463
		C142.89,179.011,142.898,179.256,142.801,179.511z"/>
	<path fill="#212121" d="M80.439,135.617c-0.097,0.188-0.197,0.369-0.294,0.556c6.39-2.809,12.992-7.648,19.43-14.16
		c-0.968,12.613-1.346,25.055,0.391,27.287c0.547,0.704,1.356,1.091,2.188,1.091c0.326,0,0.656-0.06,0.975-0.184
		c2.165-0.838,4.036-4.086,10.48-16.527c3.595-6.939,7.669-14.805,11.567-20.895c5.938-9.279,8.185-9.193,8.281-9.162
		c0.215,0.02,0.876,0.768,1.1,3.833c0.241,3.328-0.149,7.964-0.528,12.447c-0.79,9.367-1.473,17.456,2.012,20.924
		c1.201,1.196,2.793,1.744,4.582,1.582c4.567-0.407,9.346-5.577,14.609-15.805c4.317-8.39,7.768-17.964,9.41-23.613
		c0.386-1.326-0.377-2.713-1.702-3.099c-1.327-0.39-2.714,0.376-3.099,1.702c-5.729,19.705-15.273,35.443-19.662,35.834
		c-0.428,0.04-0.53-0.064-0.611-0.146c-1.834-1.824-1.065-10.933-0.557-16.959c0.913-10.816,1.775-21.031-5.083-21.68
		c-6.945-0.659-14.297,12.537-24.759,32.736c-1.771,3.419-3.793,7.321-5.429,10.208c-0.058-5.364,0.324-14.467,1.333-25.59
		c4.892-5.761,9.619-12.455,14.011-19.909c10.815-18.358,17.686-38.043,17.504-50.15c-0.126-8.395-3.646-11.343-6.577-12.339
		c-3.023-1.029-7.583-0.912-12.129,5.473c-8.938,12.555-13.953,43.802-16.146,61.311c-0.462,3.685-0.989,8.452-1.47,13.565
		c-5.479,6.285-11.117,11.285-16.641,14.729c-0.9,2.192-1.856,4.284-2.857,6.274C80.694,135.195,80.578,135.415,80.439,135.617z
		 M107.272,96.6c4.013-29.537,9.949-50.154,16.287-56.563c1.489-1.506,2.703-1.912,3.647-1.912c0.464,0,0.862,0.098,1.197,0.211
		c2.551,0.866,3.14,4.654,3.186,7.68c0.166,11.081-6.591,30.185-16.812,47.537c-2.809,4.768-5.749,9.205-8.771,13.261
		C106.377,103.514,106.798,100.098,107.272,96.6z"/>
	<path fill="#212121" d="M90.21,60.062c-3.12-11.863-9.157-19.078-17-20.315c-0.789-0.125-1.598-0.188-2.403-0.188
		c-4.761,0-9.505,2.187-13.936,6.094c0.54-0.31,1.193-0.424,1.845-0.264c1.34,0.333,2.157,1.688,1.825,3.028
		c-0.063,0.254-0.129,0.53-0.193,0.797c3.553-3.045,7.148-4.656,10.459-4.656c0.545,0,1.091,0.042,1.624,0.126
		c5.762,0.91,10.359,6.822,12.944,16.648c2.775,10.551,2.975,24.777,0.563,40.059c-1.63,10.328-4.84,20.993-9.043,29.896
		c0.648,0.228,1.251,0.375,1.794,0.441c1.37,0.169,2.344,1.417,2.175,2.787c-0.019,0.151-0.052,0.297-0.096,0.438
		c1.001-1.99,1.957-4.082,2.857-6.274c3.195-7.784,5.715-16.774,7.251-26.508C93.395,86.222,93.158,71.267,90.21,60.062z"/>
	<path fill="#212121" d="M78.386,136.711c-0.102,0-0.205-0.006-0.309-0.019c-1.143-0.141-2.304-0.455-3.469-0.912
		c-5.46,9.901-12.217,16.705-19.262,16.705c-0.503,0-1.009-0.039-1.501-0.117c-12.367-1.952-18.558-28.068-13.799-58.219
		c2.532-16.044,7.655-28.74,13.568-37.273c0.693-3.769,1.43-7.059,2.075-9.662c0.076-0.307,0.211-0.583,0.383-0.828
		c-9.652,9.044-17.7,26.292-20.965,46.983c-5.364,33.987,2.356,61.475,17.958,63.938c0.75,0.118,1.517,0.178,2.281,0.178
		c8.961,0,17.917-8.187,24.799-21.312c0.098-0.187,0.197-0.368,0.294-0.556C79.983,136.281,79.227,136.711,78.386,136.711z"/>
	<path fill="#212121" d="M53.613,56.876c-3.324,18.082-5.606,47.456,8.438,67.872c3.759,5.464,8.189,9.317,12.556,11.032
		c1.166,0.457,2.327,0.771,3.469,0.912c0.104,0.013,0.207,0.019,0.309,0.019c0.84,0,1.597-0.43,2.053-1.094
		c0.139-0.202,0.254-0.422,0.33-0.663c0.043-0.141,0.077-0.286,0.096-0.438c0.169-1.37-0.805-2.618-2.175-2.787
		c-0.543-0.066-1.146-0.214-1.794-0.441c-2.986-1.05-6.957-3.897-10.725-9.374c-15.542-22.595-9.435-57.78-5.822-72.7
		c0.064-0.267,0.13-0.543,0.193-0.797c0.332-1.34-0.485-2.696-1.825-3.028c-0.652-0.16-1.305-0.046-1.845,0.264
		c-0.316,0.181-0.588,0.431-0.801,0.734c-0.171,0.245-0.307,0.521-0.383,0.828C55.043,49.817,54.306,53.107,53.613,56.876z"/>
	<path fill="#212121" d="M192.462,91.257l-9.641,0.706c-1.377,0.101-2.411,1.299-2.311,2.676c0.096,1.315,1.192,2.318,2.49,2.318
		c0.062,0,0.123-0.003,0.186-0.007l9.641-0.706c1.377-0.102,2.411-1.299,2.311-2.676C195.038,92.191,193.844,91.157,192.462,91.257z
		"/>
	<path fill="#212121" d="M186.726,69.451c-0.777-1.143-2.331-1.439-3.474-0.663l-7.996,5.432c-1.142,0.776-1.438,2.331-0.663,3.473
		c0.484,0.712,1.271,1.096,2.07,1.096c0.484,0,0.973-0.14,1.403-0.433l7.996-5.432C187.204,72.148,187.501,70.593,186.726,69.451z"
		/>
	<path fill="#212121" d="M177.123,112.267c-0.601,1.243-0.08,2.738,1.162,3.34l8.702,4.209c0.352,0.169,0.722,0.25,1.087,0.25
		c0.929,0,1.821-0.521,2.253-1.412c0.601-1.243,0.08-2.738-1.162-3.34l-8.702-4.209
		C179.217,110.505,177.724,111.023,177.123,112.267z"/>
	<path fill="#212121" d="M2.498,110.533c0.061,0,0.123-0.002,0.185-0.007l9.641-0.706c1.377-0.101,2.412-1.299,2.311-2.676
		c-0.101-1.376-1.299-2.422-2.676-2.311l-9.641,0.706c-1.377,0.101-2.412,1.299-2.311,2.676C0.103,109.53,1.2,110.533,2.498,110.533
		z"/>
	<path fill="#212121" d="M18.021,89.517c0.601-1.243,0.081-2.738-1.162-3.339l-8.702-4.209c-1.243-0.604-2.737-0.082-3.339,1.162
		c-0.601,1.243-0.081,2.738,1.162,3.339l8.702,4.209c0.351,0.17,0.721,0.25,1.086,0.25C16.698,90.929,17.59,90.409,18.021,89.517z"
		/>
	<path fill="#212121" d="M8.42,132.333c0.483,0.712,1.27,1.095,2.07,1.095c0.483,0,0.972-0.14,1.402-0.432l7.996-5.432
		c1.142-0.776,1.439-2.331,0.663-3.474c-0.775-1.142-2.33-1.438-3.473-0.663l-7.996,5.432C7.941,129.636,7.644,131.19,8.42,132.333z
		"/>
</g>
</svg>
